<?xml version="1.0" encoding="utf-8"?>
<!-- Generator: Adobe Illustrator 25.0.1, SVG Export Plug-In . SVG Version: 6.00 Build 0)  -->
<svg version="1.1" id="Layer_1" xmlns="http://www.w3.org/2000/svg" xmlns:xlink="http://www.w3.org/1999/xlink" x="0px" y="0px"
	 viewBox="0 0 673 107.4" style="enable-background:new 0 0 673 107.4;" xml:space="preserve">
<style type="text/css">
	.st0{fill:#243335;}
</style>
<g>
	<g>
		<path class="st0" d="M111.3,105.4h-99c-5.1,0-9.2-4.1-9.2-9.2V34.6c0-19.2,11.7-32.6,28.5-32.6h99c5.2,0,9.2,4,9.2,9.2v61.6
			C139.8,92,128,105.4,111.3,105.4z M31.6,9.7c-12.6,0-20.8,9.8-20.8,24.9v61.6c0,0.8,0.6,1.5,1.4,1.5h99c12.6,0,20.8-9.8,20.8-24.9
			V11.2c0-1-0.5-1.5-1.4-1.5H31.6z"/>
		<path class="st0" d="M120.4,72.8c0,5.1-4.1,9.2-9.2,9.2c-5.1,0-9.2-4.1-9.2-9.2s4.1-9.2,9.2-9.2C116.3,63.6,120.4,67.7,120.4,72.8
			z"/>
		<rect x="36.4" y="37.7" class="st0" width="70.4" height="9.2"/>
	</g>
	<g>
		<path class="st0" d="M211.4,10.8c-0.3-0.7-0.9-1.2-1.6-1.2h-3.2c-0.8,0-1.4,0.5-1.6,1.2l-27,84.5c-0.2,0.5-0.1,1.1,0.2,1.6
			c0.3,0.5,0.9,0.8,1.4,0.8h3.7c0.8,0,1.4-0.5,1.6-1.2l8.8-27.3h28.9l8.6,27.3c0.3,0.7,0.9,1.2,1.7,1.2h3.9h0c1,0,1.8-0.8,1.8-1.8
			c0-0.3-0.1-0.6-0.2-0.8L211.4,10.8z M208.1,23.2c2.2,7.1,6.7,21.7,6.7,21.7l5.6,17.5h-24.5l6.9-22L208.1,23.2z"/>
		<path class="st0" d="M288.6,84.9c-0.3-0.4-0.8-0.6-1.2-0.6c-0.5,0-1,0.1-1.3,0.5c-3,2.8-7.9,6.2-14.1,6.2
			c-11.4,0-19.1-9.6-19.1-23.8c0-13.9,8-24.1,19.1-24.1c4.4,0,8.4,1.8,12.5,5.7c0.3,0.3,0.8,0.5,1.3,0.5c0.5,0,0.9-0.2,1.2-0.6
			l2.3-2.5c0.6-0.7,0.6-1.8-0.1-2.5c-3.6-3.4-8.9-7.4-17.2-7.4c-7.1,0-13.6,2.9-18.4,8.2c-5.1,5.6-7.8,13.5-7.8,22.6
			c0,18.3,10.5,30.6,26.2,30.6c6.6,0,12.8-2.6,18.6-7.8c0.7-0.6,0.8-1.7,0.2-2.4L288.6,84.9z"/>
		<path class="st0" d="M341.6,84.9c-0.3-0.4-0.8-0.6-1.2-0.6c-0.5,0-1,0.1-1.3,0.5c-3,2.8-7.9,6.2-14.1,6.2
			c-11.4,0-19.1-9.6-19.1-23.8c0-13.9,8-24.1,19.1-24.1c4.4,0,8.4,1.8,12.5,5.7c0.3,0.3,0.8,0.5,1.3,0.5c0.5,0,0.9-0.2,1.2-0.6
			l2.3-2.5c0.6-0.7,0.6-1.8-0.1-2.5c-3.6-3.4-8.9-7.4-17.2-7.4c-7.1,0-13.6,2.9-18.4,8.2c-5.1,5.6-7.8,13.5-7.8,22.6
			c0,18.3,10.6,30.6,26.2,30.6c6.6,0,12.8-2.6,18.5-7.8c0.7-0.6,0.8-1.7,0.2-2.4L341.6,84.9z"/>
		<path class="st0" d="M384.9,37.6c-2.3-1.2-4.4-1.3-6-1.3c-5.3,0-10.2,2.8-14.3,8.2l-0.2-5.2c0-0.9-0.8-1.7-1.8-1.7h-3
			c-1,0-1.8,0.8-1.8,1.8v56.5c0,1,0.8,1.8,1.8,1.8h3.4c1,0,1.8-0.8,1.8-1.8V56.6c3.5-8.5,8.4-13.3,13.6-13.3c1.8,0,2.5,0.2,4.2,0.8
			c0.5,0.2,1,0.1,1.4-0.1c0.4-0.2,0.8-0.6,0.9-1.1l0.9-3.2C386.1,38.9,385.7,38,384.9,37.6z"/>
		<path class="st0" d="M417.4,36.3c-12.3,0-25.3,10.8-25.3,30.8c0,18,11,30.6,26.7,30.6c8.8,0,13.8-3.1,17.8-5.6
			c0.8-0.5,1.1-1.5,0.6-2.3l-1.6-3c-0.2-0.4-0.7-0.8-1.2-0.9c-0.5-0.1-1,0-1.4,0.3c-4.4,3.2-8.9,4.7-14.1,4.7
			c-11.3,0-19.1-8.8-19.7-22.1h38.4c0.9,0,1.6-0.6,1.7-1.5c0.3-1.5,0.3-2.8,0.3-4C439.7,46.5,431.3,36.3,417.4,36.3z M417.4,43.1
			c9.5,0,14.9,6.7,15.4,19.1h-33.3C401,50.8,408.2,43.1,417.4,43.1z"/>
		<path class="st0" d="M498.7,9.6h-3.4c-1,0-1.8,0.8-1.8,1.8v23.3l0.1,6.8c-4.8-3.3-9.2-5.2-15.1-5.2c-15.2,0-26.2,13-26.2,30.8
			c0,19.2,9.1,30.6,24.4,30.6c5.9,0,11.6-2.3,17-6.9l0.2,5.2c0.1,0.9,0.8,1.7,1.7,1.7h3c1,0,1.8-0.8,1.8-1.8V11.3
			C500.5,10.4,499.7,9.6,498.7,9.6z M478.4,43.1c5.3,0,9.8,1.9,15.2,6.6v32.6c-6.1,6-11.2,8.6-16.5,8.6c-10.9,0-17.4-8.9-17.4-23.8
			C459.6,53.6,467.8,43.1,478.4,43.1z"/>
		<path class="st0" d="M520,15.8c-3.3,0-5.6,2.4-5.6,5.7c0,3.2,2.5,5.7,5.6,5.7c3.2,0,5.6-2.5,5.6-5.7
			C525.7,18.2,523.3,15.8,520,15.8z"/>
		<path class="st0" d="M521.7,37.7h-3.4c-1,0-1.8,0.8-1.8,1.8V96c0,1,0.8,1.8,1.8,1.8h3.4c1,0,1.8-0.8,1.8-1.8V39.5
			C523.5,38.5,522.7,37.7,521.7,37.7z"/>
		<path class="st0" d="M563.9,36.3c-5.4,0-11.3,2.4-17.6,7l0.1-7.4V11.3c0-1-0.8-1.8-1.8-1.8h-3.4c-1,0-1.8,0.8-1.8,1.8v83.2
			c0,1,0.8,1.8,1.8,1.8h3c0.9,0,1.7-0.7,1.8-1.6l0.2-2.5c5.2,3.5,10.7,5.6,15.4,5.6c17.1,0,26-15.9,26-31.5
			C587.6,47.2,579,36.3,563.9,36.3z M561.9,91c-1.8,0-7.9-0.5-15.4-6.7V51.8c6.5-5.8,12.3-8.7,17.2-8.7c13.8,0,16.8,12.6,16.8,23.1
			C580.5,80.8,572.8,91,561.9,91z"/>
		<path class="st0" d="M612.8,92.1c-0.2-0.9-1.1-1.5-2.1-1.3c-1,0.2-1.3,0.2-1.7,0.2c-0.4,0-0.5-1.1-0.5-1.7V11.3
			c0-1-0.8-1.8-1.8-1.8h-3.4c-1,0-1.8,0.8-1.8,1.8v77.2c0,7.6,3.9,9.1,7.2,9.1c1.4,0,2.3-0.2,3.1-0.4l0.3-0.1
			c0.9-0.2,1.5-1.2,1.3-2.1L612.8,92.1z"/>
		<path class="st0" d="M647.6,36.3c-12.3,0-25.3,10.8-25.3,30.8c0,18,11,30.6,26.7,30.6c8.8,0,13.8-3.1,17.8-5.6
			c0.8-0.5,1.1-1.5,0.6-2.3l-1.6-3c-0.2-0.4-0.7-0.8-1.2-0.9c-0.5-0.1-1,0-1.4,0.3c-4.4,3.2-8.9,4.7-14.1,4.7
			c-11.3,0-19.1-8.8-19.7-22.1h38.4c0.9,0,1.6-0.6,1.7-1.5c0.2-1.5,0.2-2.8,0.2-4C670,46.5,661.6,36.3,647.6,36.3z M629.7,62.1
			c1.6-11.3,8.8-19.1,17.9-19.1c9.5,0,14.9,6.7,15.4,19.1H629.7z"/>
	</g>
</g>
</svg>
