<?xml version="1.0" encoding="utf-8"?>
<!-- Generator: Adobe Illustrator 24.0.3, SVG Export Plug-In . SVG Version: 6.00 Build 0)  -->
<svg version="1.1" id="Layer_1" xmlns="http://www.w3.org/2000/svg" xmlns:xlink="http://www.w3.org/1999/xlink" x="0px" y="0px"
	 viewBox="0 0 377.6 107.37" style="enable-background:new 0 0 377.6 107.37;" xml:space="preserve">
<style type="text/css">
	.st0{fill:#243335;}
</style>
<g>
	<g>
		<path class="st0" d="M62.05,58.02H8c-2.81,0-5-2.2-5-5V19.67C3,9.27,9.4,2,18.56,2h54.05c2.85,0,5,2.15,5,5v33.35
			C77.61,50.76,71.21,58.02,62.05,58.02z M18.56,6.21c-6.9,0-11.35,5.29-11.35,13.47v33.35c0,0.46,0.33,0.79,0.79,0.79h54.04
			c6.9,0,11.35-5.29,11.35-13.47V7c0-0.52-0.28-0.79-0.79-0.79H18.56z"/>
		<path class="st0" d="M67.04,40.35c0,2.76-2.24,5-5,5c-2.76,0-5-2.24-5-5c0-2.76,2.24-5,5-5C64.81,35.35,67.04,37.59,67.04,40.35z"
			/>
		<rect x="21.17" y="21.37" class="st0" width="38.44" height="5"/>
	</g>
	<g>
		<path class="st0" d="M116.71,6.78c-0.14-0.38-0.5-0.63-0.9-0.63h-1.75c-0.41,0-0.77,0.26-0.9,0.63L98.43,52.51
			c-0.1,0.29-0.06,0.62,0.12,0.87c0.18,0.26,0.47,0.41,0.79,0.41h2c0.41,0,0.77-0.26,0.9-0.64l4.81-14.77h15.77l4.69,14.79
			c0.14,0.39,0.5,0.64,0.91,0.64h2.12h0.01c0.53,0,0.96-0.43,0.96-0.96c0-0.17-0.04-0.33-0.12-0.46L116.71,6.78z M114.94,13.52
			c1.18,3.83,3.64,11.73,3.64,11.73l3.05,9.46h-13.37l3.78-11.92L114.94,13.52z"/>
		<path class="st0" d="M158.86,46.92c-0.17-0.21-0.41-0.33-0.68-0.35c-0.26-0.02-0.53,0.08-0.72,0.26
			c-1.63,1.53-4.29,3.36-7.71,3.36c-6.22,0-10.4-5.18-10.4-12.89c0-7.55,4.37-13.02,10.4-13.02c2.4,0,4.57,0.99,6.83,3.11
			c0.19,0.18,0.44,0.26,0.69,0.26c0.26-0.01,0.5-0.12,0.67-0.31l1.25-1.37c0.35-0.39,0.33-0.99-0.06-1.35c-1.99-1.86-4.85-4-9.39-4
			c-3.87,0-7.45,1.58-10.05,4.43c-2.79,3.05-4.26,7.29-4.26,12.25c0,9.9,5.75,16.56,14.32,16.56c3.6,0,7-1.43,10.13-4.24
			c0.38-0.34,0.42-0.93,0.1-1.32L158.86,46.92z"/>
		<path class="st0" d="M187.79,46.92c-0.17-0.21-0.41-0.33-0.68-0.35c-0.26-0.02-0.52,0.08-0.72,0.26c-1.63,1.53-4.29,3.36-7.7,3.36
			c-6.23,0-10.4-5.18-10.4-12.89c0-7.55,4.37-13.02,10.4-13.02c2.4,0,4.57,0.99,6.83,3.11c0.19,0.18,0.44,0.26,0.69,0.26
			c0.26-0.01,0.5-0.12,0.67-0.31l1.25-1.37c0.35-0.39,0.33-0.99-0.05-1.35c-1.99-1.86-4.85-4-9.39-4c-3.88,0-7.45,1.58-10.06,4.43
			c-2.79,3.05-4.26,7.29-4.26,12.25c0,9.9,5.76,16.56,14.32,16.56c3.59,0,7-1.43,10.12-4.24c0.38-0.34,0.43-0.93,0.1-1.32
			L187.79,46.92z"/>
		<path class="st0" d="M211.45,21.33c-1.28-0.64-2.39-0.73-3.3-0.73c-2.91,0-5.56,1.53-7.78,4.46l-0.12-2.79
			c-0.02-0.51-0.45-0.92-0.96-0.92h-1.62c-0.53,0-0.96,0.43-0.96,0.96v30.56c0,0.53,0.43,0.96,0.96,0.96h1.87
			c0.53,0,0.96-0.43,0.96-0.96V31.61c1.89-4.59,4.59-7.22,7.4-7.22c0.98,0,1.37,0.09,2.29,0.44c0.25,0.09,0.53,0.08,0.77-0.04
			c0.24-0.12,0.42-0.34,0.49-0.59l0.5-1.75C212.07,22.01,211.86,21.54,211.45,21.33z"/>
		<path class="st0" d="M229.15,20.61c-6.7,0-13.82,5.85-13.82,16.69c0,9.75,5.99,16.56,14.56,16.56c4.81,0,7.54-1.67,9.74-3.01
			c0.44-0.27,0.59-0.83,0.34-1.27l-0.88-1.62c-0.13-0.24-0.36-0.42-0.63-0.48c-0.27-0.06-0.55,0-0.77,0.16
			c-2.42,1.75-4.86,2.56-7.68,2.56c-6.17,0-10.41-4.75-10.75-11.94h20.99c0.47,0,0.87-0.34,0.95-0.8c0.14-0.83,0.14-1.5,0.14-2.15
			C241.34,26.1,236.78,20.61,229.15,20.61z M229.15,24.27c5.18,0,8.13,3.65,8.38,10.32h-18.17
			C220.22,28.46,224.14,24.27,229.15,24.27z"/>
		<path class="st0" d="M273.58,6.13h-1.87c-0.53,0-0.96,0.43-0.96,0.96v12.63l0.08,3.68c-2.61-1.78-5-2.79-8.23-2.79
			c-8.3,0-14.32,7.02-14.32,16.69c0,10.37,4.98,16.56,13.32,16.56c3.23,0,6.34-1.26,9.27-3.74l0.13,2.84c0.03,0.5,0.45,0.9,0.95,0.9
			h1.62c0.53,0,0.96-0.43,0.96-0.96V7.09C274.54,6.56,274.1,6.13,273.58,6.13z M262.47,24.27c2.91,0,5.33,1.05,8.28,3.59V45.5
			c-3.31,3.24-6.11,4.68-9.03,4.68c-5.96,0-9.52-4.82-9.52-12.89C252.2,29.99,256.71,24.27,262.47,24.27z"/>
		<path class="st0" d="M285.19,9.5c-1.78,0-3.08,1.29-3.08,3.08c0,1.73,1.36,3.08,3.08,3.08c1.73,0,3.08-1.35,3.08-3.08
			C288.28,10.79,286.98,9.5,285.19,9.5z"/>
		<path class="st0" d="M286.13,21.36h-1.87c-0.53,0-0.96,0.43-0.96,0.96V52.9c0,0.53,0.43,0.96,0.96,0.96h1.87
			c0.53,0,0.96-0.43,0.96-0.96V22.31C287.09,21.78,286.66,21.36,286.13,21.36z"/>
		<path class="st0" d="M309.17,20.61c-2.97,0-6.19,1.28-9.61,3.81l0.08-3.98V7.09c0-0.53-0.43-0.96-0.96-0.96h-1.87
			c-0.53,0-0.96,0.43-0.96,0.96v45.06c0,0.53,0.43,0.96,0.96,0.96h1.62c0.5,0,0.91-0.38,0.96-0.88l0.12-1.38
			c2.84,1.92,5.84,3.01,8.41,3.01c9.31,0,14.19-8.58,14.19-17.06C322.11,26.5,317.39,20.61,309.17,20.61z M308.05,50.19
			c-0.96,0-4.34-0.26-8.4-3.61V28.99c3.55-3.13,6.71-4.71,9.4-4.71c7.56,0,9.15,6.81,9.15,12.52
			C318.2,44.68,314.02,50.19,308.05,50.19z"/>
		<path class="st0" d="M335.83,50.81c-0.12-0.51-0.61-0.83-1.12-0.73c-0.53,0.11-0.72,0.11-0.93,0.11c-0.23,0-0.29-0.59-0.29-0.91
			V7.09c0-0.53-0.43-0.96-0.96-0.96h-1.87c-0.53,0-0.96,0.43-0.96,0.96V48.9c0,4.09,2.15,4.95,3.95,4.95c0.78,0,1.24-0.12,1.68-0.24
			l0.18-0.04c0.5-0.13,0.82-0.63,0.7-1.14L335.83,50.81z"/>
		<path class="st0" d="M354.85,20.61c-6.69,0-13.81,5.85-13.81,16.69c0,9.75,5.99,16.56,14.56,16.56c4.81,0,7.54-1.67,9.74-3.01
			c0.43-0.27,0.58-0.83,0.34-1.27l-0.88-1.62c-0.13-0.24-0.36-0.42-0.63-0.48c-0.27-0.06-0.55,0-0.78,0.16
			c-2.42,1.75-4.86,2.56-7.68,2.56c-6.18,0-10.41-4.75-10.75-11.94h20.99c0.47,0,0.87-0.34,0.95-0.8c0.13-0.83,0.13-1.5,0.13-2.15
			C367.05,26.1,362.49,20.61,354.85,20.61z M345.07,34.59c0.86-6.13,4.78-10.32,9.78-10.32c5.18,0,8.13,3.65,8.39,10.32H345.07z"/>
	</g>
</g>
<g>
	<path class="st0" d="M164.03,90.98c-0.07-0.08-0.18-0.13-0.29-0.13c-0.12-0.04-0.22,0.05-0.29,0.13c-0.88,0.97-1.81,1.72-2.77,2.21
		c-0.95,0.49-2.05,0.73-3.27,0.73c-1.27,0-2.43-0.26-3.45-0.77c-1.02-0.51-1.9-1.25-2.62-2.19c-0.73-0.94-1.29-2.11-1.68-3.46
		c-0.39-1.36-0.59-2.92-0.59-4.62c0-1.7,0.2-3.25,0.59-4.6c0.39-1.34,0.96-2.49,1.7-3.42c0.73-0.92,1.63-1.65,2.67-2.15
		c1.04-0.5,2.23-0.76,3.53-0.76c1.07,0,2.04,0.22,2.9,0.66c0.86,0.44,1.63,1.05,2.27,1.79c0.15,0.17,0.45,0.17,0.6,0l1.03-1.18
		c0.13-0.15,0.13-0.37,0-0.51c-0.69-0.82-1.62-1.55-2.77-2.18c-1.17-0.64-2.54-0.96-4.06-0.96c-1.64,0-3.16,0.31-4.51,0.93
		c-1.35,0.62-2.53,1.52-3.5,2.69c-0.97,1.16-1.72,2.58-2.26,4.21c-0.53,1.63-0.8,3.47-0.8,5.48c0,2.03,0.26,3.89,0.78,5.53
		c0.52,1.65,1.27,3.07,2.22,4.23c0.96,1.17,2.12,2.08,3.46,2.71c1.34,0.63,2.83,0.95,4.42,0.95c1.68,0,3.16-0.33,4.4-1
		c1.23-0.65,2.35-1.56,3.34-2.71c0.13-0.15,0.13-0.38-0.01-0.53L164.03,90.98z"/>
	<path class="st0" d="M178.92,76.8c-0.33-0.17-0.66-0.28-0.98-0.34c-0.3-0.05-0.64-0.08-1.02-0.08c-1.18,0-2.25,0.39-3.19,1.15
		c-0.65,0.53-1.23,1.17-1.74,1.93l-0.1-2.25c-0.01-0.21-0.18-0.38-0.39-0.38h-1.44c-0.22,0-0.4,0.18-0.4,0.4v18.23
		c0,0.22,0.18,0.4,0.4,0.4h1.67c0.22,0,0.4-0.18,0.4-0.4V83.12c0.67-1.61,1.43-2.75,2.26-3.39c0.82-0.64,1.6-0.96,2.32-0.96
		c0.33,0,0.6,0.02,0.81,0.05c0.2,0.03,0.44,0.11,0.71,0.22c0.11,0.04,0.23,0.04,0.33-0.01c0.1-0.05,0.18-0.15,0.21-0.26l0.38-1.52
		C179.17,77.07,179.09,76.88,178.92,76.8z"/>
	<path class="st0" d="M188.51,76.38c-1.07,0-2.11,0.24-3.11,0.7c-0.99,0.46-1.89,1.13-2.67,1.99c-0.78,0.86-1.4,1.92-1.86,3.15
		c-0.46,1.23-0.69,2.63-0.69,4.16c0,1.54,0.23,2.93,0.69,4.15c0.46,1.22,1.09,2.27,1.88,3.13c0.79,0.86,1.74,1.53,2.82,1.98
		c1.07,0.45,2.23,0.68,3.44,0.68c1.39,0,2.56-0.2,3.48-0.6c0.88-0.38,1.71-0.8,2.46-1.24c0.18-0.11,0.25-0.34,0.15-0.53l-0.68-1.29
		c-0.05-0.1-0.15-0.18-0.26-0.2c-0.11-0.03-0.23,0-0.32,0.07c-0.65,0.48-1.36,0.87-2.12,1.14c-0.75,0.27-1.6,0.41-2.54,0.41
		c-0.98,0-1.86-0.19-2.64-0.55c-0.78-0.37-1.46-0.88-2.01-1.53c-0.56-0.66-1-1.46-1.31-2.38c-0.28-0.82-0.44-1.71-0.5-2.65h12.73
		c0.19,0,0.35-0.13,0.39-0.31c0.06-0.26,0.09-0.51,0.09-0.77v-0.68c0-2.77-0.66-4.95-1.96-6.48
		C192.62,77.17,190.79,76.38,188.51,76.38z M182.72,84.81c0.11-0.87,0.32-1.67,0.62-2.37c0.35-0.81,0.8-1.52,1.33-2.09
		c0.53-0.57,1.13-1,1.79-1.3c0.65-0.29,1.35-0.44,2.08-0.44c1.54,0,2.72,0.52,3.61,1.59c0.84,1.01,1.3,2.56,1.35,4.61H182.72z"/>
	<path class="st0" d="M214.48,67.76h-1.67c-0.22,0-0.4,0.18-0.4,0.4v7.53l0.06,2.53c-0.7-0.49-1.37-0.9-2.02-1.21
		c-0.87-0.42-1.91-0.63-3.08-0.63c-1.14,0-2.24,0.24-3.26,0.7c-1.02,0.46-1.93,1.14-2.71,2.01c-0.78,0.87-1.4,1.94-1.84,3.17
		c-0.44,1.23-0.67,2.61-0.67,4.12c0,3.17,0.72,5.64,2.14,7.34c1.44,1.72,3.4,2.59,5.81,2.59c1.28,0,2.46-0.3,3.52-0.91
		c0.8-0.46,1.53-0.97,2.17-1.54l0.1,1.62c0.01,0.21,0.19,0.37,0.39,0.37h1.44c0.22,0,0.4-0.18,0.4-0.4V68.15
		C214.88,67.93,214.7,67.76,214.48,67.76z M212.42,80.79v10.48c-0.89,0.88-1.78,1.56-2.63,2.04c-1.68,0.94-3.69,0.92-5.09,0.18
		c-0.69-0.36-1.28-0.87-1.74-1.52c-0.48-0.65-0.84-1.46-1.1-2.4c-0.26-0.95-0.38-2.03-0.38-3.2c0-1.09,0.16-2.13,0.47-3.09
		c0.31-0.95,0.74-1.78,1.28-2.46c0.53-0.68,1.17-1.22,1.91-1.61c0.72-0.39,1.52-0.58,2.36-0.58c0.83,0,1.65,0.17,2.45,0.5
		C210.71,79.47,211.54,80.02,212.42,80.79z"/>
	<path class="st0" d="M228.27,76.38c-1.07,0-2.11,0.24-3.11,0.7c-0.99,0.46-1.89,1.13-2.67,1.99c-0.78,0.86-1.4,1.92-1.86,3.15
		c-0.46,1.23-0.69,2.63-0.69,4.16c0,1.54,0.23,2.93,0.69,4.15c0.46,1.22,1.09,2.27,1.88,3.13c0.79,0.86,1.74,1.53,2.82,1.98
		c1.07,0.45,2.23,0.68,3.44,0.68c1.39,0,2.56-0.2,3.48-0.6c0.88-0.38,1.71-0.8,2.46-1.24c0.18-0.11,0.25-0.34,0.15-0.53l-0.68-1.29
		c-0.05-0.1-0.15-0.18-0.26-0.2c-0.11-0.03-0.23,0-0.32,0.07c-0.65,0.48-1.36,0.87-2.12,1.14c-0.75,0.27-1.6,0.41-2.54,0.41
		c-0.98,0-1.86-0.19-2.64-0.55c-0.78-0.37-1.46-0.88-2.01-1.53c-0.56-0.66-1-1.46-1.31-2.38c-0.28-0.82-0.44-1.71-0.5-2.65h12.73
		c0.19,0,0.35-0.13,0.39-0.31c0.06-0.26,0.09-0.51,0.09-0.77v-0.68c0-2.77-0.66-4.95-1.96-6.48
		C232.39,77.17,230.56,76.38,228.27,76.38z M222.49,84.81c0.11-0.87,0.32-1.67,0.62-2.37c0.35-0.81,0.8-1.52,1.33-2.09
		c0.53-0.57,1.13-1,1.79-1.3c0.65-0.29,1.35-0.44,2.08-0.44c1.54,0,2.72,0.52,3.61,1.59c0.84,1.01,1.3,2.56,1.35,4.61H222.49z"/>
	<path class="st0" d="M248.55,76.38c-1.34,0-2.54,0.33-3.59,0.99c-0.83,0.52-1.64,1.15-2.44,1.89l-0.11-2.05
		c-0.01-0.21-0.18-0.37-0.39-0.37h-1.44c-0.22,0-0.4,0.18-0.4,0.4v18.23c0,0.22,0.18,0.4,0.4,0.4h1.67c0.22,0,0.4-0.18,0.4-0.4
		V81.87c1.04-1.06,1.99-1.86,2.82-2.39c0.82-0.53,1.74-0.79,2.75-0.79c1.37,0,2.31,0.4,2.88,1.22c0.6,0.85,0.9,2.23,0.9,4.08v11.47
		c0,0.22,0.18,0.4,0.4,0.4h1.67c0.22,0,0.4-0.18,0.4-0.4v-11.7c0-2.46-0.48-4.32-1.41-5.52C252.08,77.01,250.57,76.38,248.55,76.38z
		"/>
	<path class="st0" d="M269.02,93.74c-0.04-0.11-0.12-0.19-0.22-0.24c-0.1-0.04-0.22-0.04-0.32,0c-0.31,0.14-0.67,0.27-1.06,0.38
		c-1.07,0.29-1.9,0.17-2.42-0.09c-0.33-0.16-0.58-0.38-0.77-0.66c-0.2-0.3-0.34-0.66-0.41-1.07c-0.08-0.44-0.13-0.94-0.13-1.5V79.07
		h4.88c0.22,0,0.4-0.18,0.4-0.4v-1.44c0-0.22-0.18-0.4-0.4-0.4h-4.88v-4.88c0-0.22-0.18-0.4-0.4-0.4h-1.44
		c-0.21,0-0.39,0.17-0.4,0.38l-0.21,4.92l-2.53,0.13c-0.21,0.01-0.37,0.18-0.37,0.4v1.29c0,0.22,0.18,0.4,0.4,0.4h2.45v11.34
		c0,0.83,0.07,1.61,0.22,2.32c0.15,0.74,0.42,1.38,0.81,1.9c0.39,0.53,0.92,0.95,1.56,1.25c0.63,0.29,1.43,0.44,2.37,0.44
		c0.41,0,0.9-0.07,1.46-0.2c0.55-0.13,1.11-0.3,1.65-0.51c0.2-0.08,0.3-0.29,0.23-0.49L269.02,93.74z"/>
	<path class="st0" d="M272.92,69.93c-0.38,0.34-0.57,0.82-0.57,1.41c0,0.54,0.19,0.99,0.56,1.35c0.37,0.35,0.82,0.53,1.36,0.53
		c0.53,0,0.99-0.18,1.36-0.53c0.37-0.35,0.56-0.81,0.56-1.35c0-0.59-0.19-1.07-0.57-1.41C274.89,69.26,273.65,69.27,272.92,69.93z"
		/>
	<path class="st0" d="M275.07,76.84h-1.67c-0.22,0-0.4,0.18-0.4,0.4v18.23c0,0.22,0.18,0.4,0.4,0.4h1.67c0.22,0,0.4-0.18,0.4-0.4
		V77.23C275.46,77.01,275.28,76.84,275.07,76.84z"/>
	<path class="st0" d="M293.66,78.59c-0.49-0.68-1.14-1.23-1.93-1.62c-0.79-0.39-1.75-0.59-2.87-0.59c-0.76,0-1.51,0.09-2.22,0.26
		c-0.7,0.17-1.36,0.37-1.95,0.6c-0.6,0.23-1.15,0.5-1.63,0.79c-0.48,0.28-0.88,0.54-1.22,0.77c-0.17,0.12-0.22,0.35-0.11,0.53
		l0.76,1.25c0.06,0.09,0.15,0.16,0.26,0.18c0.11,0.02,0.22,0,0.31-0.07c0.61-0.44,1.42-0.9,2.41-1.37c0.96-0.45,2.02-0.68,3.17-0.68
		c0.83,0,1.5,0.15,2,0.45c0.5,0.31,0.9,0.71,1.2,1.2c0.3,0.5,0.5,1.07,0.59,1.71c0.08,0.56,0.13,1.11,0.14,1.66
		c-3.93,0.46-6.87,1.23-8.74,2.27c-2.01,1.12-3.03,2.79-3.03,4.96c0,0.91,0.15,1.72,0.45,2.4c0.3,0.69,0.72,1.26,1.25,1.7
		c0.52,0.44,1.13,0.77,1.81,0.99c0.67,0.21,1.4,0.32,2.17,0.32c1.27,0,2.49-0.3,3.62-0.9c0.91-0.48,1.78-1.03,2.6-1.63l0.11,1.7
		c0.01,0.21,0.19,0.37,0.39,0.37h1.44c0.22,0,0.4-0.18,0.4-0.4V83.8c0-1.01-0.11-1.97-0.32-2.85
		C294.49,80.06,294.14,79.27,293.66,78.59z M292.56,85.77v5.56c-1.06,0.88-2.05,1.57-2.94,2.04c-0.9,0.47-1.86,0.71-2.85,0.71
		c-0.49,0-0.96-0.06-1.39-0.19c-0.41-0.12-0.78-0.31-1.1-0.57c-0.3-0.25-0.55-0.58-0.72-0.98c-0.18-0.4-0.27-0.91-0.27-1.51
		c0-0.63,0.15-1.22,0.46-1.74c0.31-0.52,0.83-1,1.55-1.42c0.75-0.44,1.76-0.82,3.01-1.14C289.47,86.24,290.9,85.98,292.56,85.77z"/>
	<path class="st0" d="M305.04,94.27c-0.02-0.1-0.09-0.19-0.18-0.25c-0.09-0.06-0.2-0.07-0.3-0.05c-0.24,0.06-0.33,0.06-0.34,0.06
		h-0.25c-0.07,0-0.16-0.02-0.26-0.14c-0.05-0.07-0.14-0.24-0.14-0.65V68.15c0-0.22-0.18-0.4-0.4-0.4h-1.67c-0.22,0-0.4,0.18-0.4,0.4
		v24.88c0,2.71,1.43,3.28,2.64,3.28c0.31,0,0.56-0.02,0.77-0.07c0.19-0.04,0.37-0.09,0.56-0.14c0.2-0.06,0.32-0.26,0.28-0.47
		L305.04,94.27z"/>
	<path class="st0" d="M310.16,92.63c-0.41,0.38-0.62,0.91-0.62,1.58c0,0.64,0.21,1.16,0.62,1.54c0.4,0.37,0.88,0.56,1.41,0.56
		c0.53,0,1-0.19,1.39-0.57c0.4-0.38,0.6-0.9,0.6-1.54c0-0.67-0.2-1.2-0.6-1.58C312.18,91.88,310.96,91.88,310.16,92.63z"/>
	<path class="st0" d="M327.56,76.38c-1.34,0-2.54,0.33-3.59,0.99c-0.83,0.52-1.64,1.15-2.44,1.89l-0.11-2.05
		c-0.01-0.21-0.18-0.37-0.39-0.37h-1.44c-0.22,0-0.4,0.18-0.4,0.4v18.23c0,0.22,0.18,0.4,0.4,0.4h1.67c0.22,0,0.4-0.18,0.4-0.4
		V81.87c1.04-1.06,1.99-1.86,2.82-2.39c0.82-0.53,1.74-0.79,2.75-0.79c1.37,0,2.31,0.4,2.88,1.22c0.6,0.85,0.9,2.23,0.9,4.08v11.47
		c0,0.22,0.18,0.4,0.4,0.4h1.67c0.22,0,0.4-0.18,0.4-0.4v-11.7c0-2.46-0.48-4.32-1.41-5.52C331.08,77.01,329.57,76.38,327.56,76.38z
		"/>
	<path class="st0" d="M346.59,76.38c-1.07,0-2.11,0.24-3.11,0.7c-0.99,0.46-1.89,1.13-2.67,1.99c-0.78,0.86-1.4,1.92-1.86,3.15
		c-0.46,1.23-0.69,2.63-0.69,4.16c0,1.54,0.23,2.93,0.69,4.15c0.46,1.22,1.09,2.27,1.88,3.13c0.79,0.86,1.74,1.53,2.82,1.98
		c1.07,0.45,2.23,0.68,3.44,0.68c1.39,0,2.56-0.2,3.48-0.6c0.88-0.38,1.71-0.8,2.46-1.24c0.18-0.11,0.25-0.34,0.15-0.53l-0.68-1.29
		c-0.05-0.1-0.15-0.18-0.26-0.2c-0.11-0.03-0.23,0-0.32,0.07c-0.65,0.48-1.36,0.87-2.12,1.14c-0.75,0.27-1.6,0.41-2.54,0.41
		c-0.98,0-1.86-0.19-2.64-0.55c-0.78-0.37-1.46-0.88-2.01-1.53c-0.56-0.66-1-1.46-1.31-2.38c-0.28-0.82-0.44-1.71-0.5-2.65h12.73
		c0.19,0,0.35-0.13,0.39-0.31c0.06-0.26,0.09-0.51,0.09-0.77v-0.68c0-2.77-0.66-4.95-1.96-6.48
		C350.7,77.17,348.87,76.38,346.59,76.38z M340.8,84.81c0.11-0.87,0.32-1.67,0.62-2.37c0.35-0.81,0.8-1.52,1.33-2.09
		c0.53-0.57,1.13-1,1.79-1.3c0.65-0.29,1.35-0.44,2.08-0.44c1.54,0,2.72,0.52,3.61,1.59c0.84,1.01,1.3,2.56,1.35,4.61H340.8z"/>
	<path class="st0" d="M366.83,95.11l-0.46-1.37c-0.04-0.11-0.12-0.19-0.22-0.24c-0.1-0.04-0.22-0.04-0.32,0
		c-0.31,0.14-0.67,0.27-1.06,0.38c-1.07,0.29-1.9,0.17-2.42-0.09c-0.33-0.16-0.58-0.38-0.77-0.66c-0.2-0.3-0.34-0.66-0.41-1.07
		c-0.08-0.44-0.13-0.94-0.13-1.5V79.07h4.88c0.22,0,0.4-0.18,0.4-0.4v-1.44c0-0.22-0.18-0.4-0.4-0.4h-4.88v-4.88
		c0-0.22-0.18-0.4-0.4-0.4h-1.44c-0.21,0-0.39,0.17-0.4,0.38l-0.21,4.92l-2.53,0.13c-0.21,0.01-0.37,0.18-0.37,0.4v1.29
		c0,0.22,0.18,0.4,0.4,0.4h2.45v11.34c0,0.83,0.07,1.61,0.22,2.32c0.15,0.74,0.42,1.38,0.81,1.9c0.39,0.53,0.92,0.95,1.56,1.25
		c0.63,0.29,1.43,0.44,2.37,0.44c0.41,0,0.9-0.07,1.46-0.2c0.55-0.13,1.11-0.3,1.65-0.51C366.79,95.53,366.89,95.31,366.83,95.11z"
		/>
</g>
</svg>
