<svg width="52" height="74" viewBox="0 0 52 74" fill="none" xmlns="http://www.w3.org/2000/svg">
<path d="M13.1016 37.7828L39.9924 37.7568L40.0145 67.2837L38.6495 69.5399C38.65 69.9044 38.2196 70.1111 37.9213 69.8895L27.3874 63.6583C26.8991 63.2946 26.2206 63.2955 25.7328 63.66L15.0165 71.428C14.7187 71.6505 14.2878 71.4447 14.2878 71.0798L13.1237 67.3105L13.1016 37.7828Z" fill="#BA9542"/>
<path d="M40.0215 73.5332C40.0215 73.8982 39.5916 74.1048 39.2929 73.885L27.3944 65.0247C26.9056 64.6598 26.2267 64.6598 25.7425 65.0247L13.8621 73.907C13.5634 74.1312 13.1334 73.9246 13.1334 73.5596L13.1289 67.3113L25.6927 58.429C26.2086 58.064 26.9237 58.064 27.4442 58.429L40.017 67.2849L40.0215 73.5332Z" fill="#E8BA52"/>
<path d="M46.9581 35.0744L46.5657 40.0968C46.2254 41.7616 44.9043 43.0733 43.1989 43.4409L36.3893 44.9086C35.8562 45.0234 35.3493 45.234 34.8953 45.5286L29.8988 49.4949C28.4465 50.438 26.5578 50.4583 25.0842 49.5463L18.5584 47.306C18.0976 47.021 17.5862 46.8214 17.0508 46.7181L10.2095 45.3967C8.49603 45.066 7.14597 43.7825 6.76761 42.1257L5.25688 35.5097C5.13875 34.9917 4.92196 34.4993 4.61873 34.0582L0.742791 28.4242C-0.228005 27.0131 -0.248825 25.1782 0.689837 23.7465L4.4368 18.0306C4.73008 17.583 4.93554 17.0861 5.0419 16.5659L6.40192 9.91919C6.74226 8.25443 8.06336 6.94275 9.7687 6.57515L16.5783 5.10738C17.1115 4.99261 17.6183 4.782 18.0723 4.48739L23.8713 0.721661C25.3236 -0.221528 27.2122 -0.241743 28.6859 0.670226L34.569 4.31062C35.0298 4.59556 35.5412 4.79519 36.0766 4.89852L42.9179 6.21987C44.6314 6.55098 45.9814 7.83406 46.3598 9.49091L47.8705 16.1069C47.9886 16.6248 48.1 17.8815 48.4032 18.3226L51.2572 23.2157C52.228 24.6268 52.2488 26.4617 51.3102 27.8934L47.5632 33.6093C47.2699 34.0573 47.0649 34.5538 46.9581 35.0744V35.0744Z" fill="#E8BA52"/>
<path d="M26.5576 32.8697C30.5719 32.8697 33.8261 29.708 33.8261 25.8079C33.8261 21.9078 30.5719 18.7461 26.5576 18.7461C22.5433 18.7461 19.2891 21.9078 19.2891 25.8079C19.2891 29.708 22.5433 32.8697 26.5576 32.8697Z" fill="#BA9542"/>
</svg>
